<?xml version="1.0" encoding="UTF-8"?><svg id="Layer_2" xmlns="http://www.w3.org/2000/svg" viewBox="0 0 188.11 130.11"><defs><style>.cls-1{fill:#43ae54;}.cls-2{fill:#fbce0e;}.cls-3{fill:#74358c;}.cls-4{fill:#1d917e;}.cls-5{fill:#92c247;}.cls-6{fill:#655da6;}.cls-7{font-family:CenturyGothic-BoldItalic, 'Century Gothic';}.cls-8{fill:#9b4392;}.cls-9{fill:#f5e836;}.cls-10{fill:#f28e25;}.cls-11{font-family:CenturyGothic, 'Century Gothic';}.cls-12{fill:#4267af;}.cls-13{fill:#ea5827;}.cls-14{fill:#e6282a;}.cls-15{fill:#fff;font-size:27.95px;}</style></defs><g id="Layer_1-2"><g><g><path class="cls-9" d="M102.97,3.05l-2.5,9.4c-4.44,.5-8.38,1.45-12.09,2.98l-3.25-12.38c-.3-1.14,.45-2.29,1.62-2.48,3.08-.49,8.53-1,14.62,0,1.16,.19,1.9,1.35,1.6,2.48Z"/><path class="cls-5" d="M86.3,16.37c-3.13,1.5-6.14,3.47-9.2,5.99l-9.67-9.78c-.83-.84-.75-2.21,.17-2.95,2.43-1.96,6.89-5.13,12.65-7.31,1.1-.42,2.32,.22,2.63,1.35l3.43,12.71Z"/><path class="cls-1" d="M62.81,14.39c-3.9,4.76-6.17,9.74-7.29,12.65-.42,1.1,.19,2.33,1.33,2.64l13.38,3.67c2.05-5.25,4.47-8.31,5.35-9.32l-9.81-9.78c-.83-.83-2.21-.76-2.96,.15Z"/><path class="cls-4" d="M56.25,49.78l13.42-3.52c-.85-5.57-.28-9.44-.03-10.75l-13.39-3.57c-1.14-.3-2.29,.44-2.48,1.6-1,6.08-.48,11.53,0,14.62,.18,1.17,1.33,1.92,2.48,1.62Z"/><path class="cls-12" d="M75.64,57.73c-3.52-4.4-4.96-8.03-5.4-9.29l-13.38,3.61c-1.13,.31-1.77,1.53-1.35,2.63,2.18,5.76,5.35,10.23,7.31,12.65,.74,.92,2.11,.99,2.95,.16l9.86-9.76Z"/><path class="cls-6" d="M82.88,78.06l3.67-13.38c-5.25-2.05-8.31-4.47-9.32-5.35l-9.78,9.81c-.83,.83-.76,2.21,.15,2.96,4.76,3.9,9.74,6.17,12.65,7.29,1.1,.42,2.33-.19,2.64-1.33Z"/><path class="cls-3" d="M88.71,65.27l-3.57,13.39c-.3,1.14,.44,2.29,1.6,2.48,6.08,1,11.53,.48,14.62,0,1.17-.18,1.92-1.33,1.62-2.48l-3.52-13.42c-5.57,.85-9.44,.28-10.75,.03Z"/><path class="cls-8" d="M101.63,64.67l3.61,13.38c.31,1.13,1.53,1.77,2.63,1.35,5.77-2.18,10.23-5.35,12.65-7.31,.92-.74,.99-2.11,.16-2.95l-9.76-9.87c-4.4,3.52-8.03,4.96-9.29,5.4Z"/><path class="cls-14" d="M117.87,48.37c-2.05,5.25-4.47,8.31-5.35,9.32l9.81,9.78c.83,.83,2.21,.76,2.96-.15,3.9-4.77,6.18-9.74,7.3-12.65,.42-1.1-.2-2.33-1.33-2.64l-13.38-3.67Z"/><path class="cls-13" d="M121.53,34.64l10.33-2.71c1.14-.3,2.29,.45,2.48,1.62,.49,3.08,1,8.53,0,14.62-.19,1.16-1.35,1.9-2.49,1.6l-13.3-3.55,2.97-11.58Z"/><path class="cls-10" d="M127.19,16.93c-4.14,3.95-7.17,9.23-9.06,14.72-.15,.37-.29,.74-.44,1.12-.61-1.58-2.09-4.88-5.22-8.79l8.98-8.88c1.46-.04,2.9-.06,4.32-.09,.44,.56,.92,1.2,1.42,1.92Z"/><path class="cls-10" d="M133.32,29.11l-11.22,3.03c1.1-4.63,2.29-8.37,4.86-10.78,1-.94,2.64-.69,3.28,.52,1.15,2.13,2.23,4.57,3.07,7.23Z"/><path class="cls-2" d="M101.61,16.91c5.36-1.09,10.98-1.5,16.45-1.71l-7.17,7.19c-1.01-.88-4.08-3.3-9.32-5.35l.04-.13Z"/><path class="cls-2" d="M121.3,11.95h0c-.24,.24-.57,.37-.91,.35-6.75-.38-12.46-.48-17.5-.09l2.34-8.55c.31-1.14,1.53-1.76,2.63-1.34,3.06,1.18,8.4,3.63,13.38,7.91,.52,.44,.54,1.24,.06,1.73Z"/></g><path class="cls-4" d="M88.26,59.16c-1.73-.54-3.74-1.58-5.61-2.86,1.09-4.19,2.65-7.22,4.54-11.09h-.03c.73-1.19,1.24-2.56,2.04-3.67,3.1-5.39,7.79-10.19,13.3-13.03-5.35,.95-9.82,4.81-13.19,8.9h-.05c-4.32,5.23-10.07,15.59-10.07,15.59-4.5-4.5-6.57-15.03-.88-23.09,11.12-15.76,33.45-14.58,50.09-14.94,1.21,.01,.21,.56-.22,1.06-4.64,4.04-8.01,9.71-10.05,15.63-2.17,5.51-3.05,12.23-7.93,19.6-4.45,6.72-14.38,10.67-21.94,7.91Z"/></g><text class="cls-15" transform="translate(0 121.54)"><tspan class="cls-11" x="0" y="0">Leaf</tspan><tspan class="cls-7" x="58.95" y="0">Spectrum</tspan></text></g></svg>